<svg width="788.0" height="1762.9044469908627" viewBox="0 0 788.0 1762.9044469908627" class="keymap" xmlns="http://www.w3.org/2000/svg" xmlns:xlink="http://www.w3.org/1999/xlink">
<defs>/* start glyphs */
<svg id="mdi:volume-minus">
<svg xmlns="http://www.w3.org/2000/svg" id="mdi-volume-minus" viewBox="0 0 24 24"><path d="M3,9H7L12,4V20L7,15H3V9M14,11H22V13H14V11Z" /></svg>
</svg>
<svg id="mdi:skip-next">
<svg xmlns="http://www.w3.org/2000/svg" id="mdi-skip-next" viewBox="0 0 24 24"><path d="M16,18H18V6H16M6,18L14.5,12L6,6V18Z" /></svg>
</svg>
<svg id="mdi:arrow-collapse-right">
<svg xmlns="http://www.w3.org/2000/svg" id="mdi-arrow-collapse-right" viewBox="0 0 24 24"><path d="M12.08,4.08L20,12L12.08,19.92L10.67,18.5L16.17,13H2V11H16.17L10.67,5.5L12.08,4.08M20,12V22H22V2H20V12Z" /></svg>
</svg>
<svg id="mdi:backspace-reverse-outline">
<svg xmlns="http://www.w3.org/2000/svg" id="mdi-backspace-reverse-outline" viewBox="0 0 24 24"><path d="M5,15.59L6.41,17L10,13.41L13.59,17L15,15.59L11.41,12L15,8.41L13.59,7L10,10.59L6.41,7L5,8.41L8.59,12L5,15.59M2,3A2,2 0 0,0 0,5V19A2,2 0 0,0 2,21H17C17.69,21 18.23,20.64 18.59,20.11L24,12L18.59,3.88C18.23,3.35 17.69,3 17,3H2M2,5H17L21.72,12L17,19H2V5Z" /></svg>
</svg>
<svg id="mdi:skip-previous">
<svg xmlns="http://www.w3.org/2000/svg" id="mdi-skip-previous" viewBox="0 0 24 24"><path d="M6,18V6H8V18H6M9.5,12L18,6V18L9.5,12Z" /></svg>
</svg>
<svg id="mdi:cached">
<svg xmlns="http://www.w3.org/2000/svg" id="mdi-cached" viewBox="0 0 24 24"><path d="M19,8L15,12H18A6,6 0 0,1 12,18C11,18 10.03,17.75 9.2,17.3L7.74,18.76C8.97,19.54 10.43,20 12,20A8,8 0 0,0 20,12H23M6,12A6,6 0 0,1 12,6C13,6 13.97,6.25 14.8,6.7L16.26,5.24C15.03,4.46 13.57,4 12,4A8,8 0 0,0 4,12H1L5,16L9,12" /></svg>
</svg>
<svg id="mdi:bluetooth-settings">
<svg xmlns="http://www.w3.org/2000/svg" id="mdi-bluetooth-settings" viewBox="0 0 24 24"><path d="M14.88,14.29L13,16.17V12.41L14.88,14.29M13,3.83L14.88,5.71L13,7.59M17.71,5.71L12,0H11V7.59L6.41,3L5,4.41L10.59,10L5,15.59L6.41,17L11,12.41V20H12L17.71,14.29L13.41,10L17.71,5.71M15,24H17V22H15M7,24H9V22H7M11,24H13V22H11V24Z" /></svg>
</svg>
<svg id="mdi:volume-plus">
<svg xmlns="http://www.w3.org/2000/svg" id="mdi-volume-plus" viewBox="0 0 24 24"><path d="M3,9H7L12,4V20L7,15H3V9M14,11H17V8H19V11H22V13H19V16H17V13H14V11Z" /></svg>
</svg>
<svg id="mdi:backspace-outline">
<svg xmlns="http://www.w3.org/2000/svg" id="mdi-backspace-outline" viewBox="0 0 24 24"><path d="M19,15.59L17.59,17L14,13.41L10.41,17L9,15.59L12.59,12L9,8.41L10.41,7L14,10.59L17.59,7L19,8.41L15.41,12L19,15.59M22,3A2,2 0 0,1 24,5V19A2,2 0 0,1 22,21H7C6.31,21 5.77,20.64 5.41,20.11L0,12L5.41,3.88C5.77,3.35 6.31,3 7,3H22M22,5H7L2.28,12L7,19H22V5Z" /></svg>
</svg>
<svg id="mdi:keyboard-space">
<svg xmlns="http://www.w3.org/2000/svg" id="mdi-keyboard-space" viewBox="0 0 24 24"><path d="M3 15H5V19H19V15H21V19C21 20.1 20.1 21 19 21H5C3.9 21 3 20.1 3 19V15Z" /></svg>
</svg>
<svg id="mdi:export-variant">
<svg xmlns="http://www.w3.org/2000/svg" id="mdi-export-variant" viewBox="0 0 24 24"><path d="M12,1L8,5H11V14H13V5H16M18,23H6C4.89,23 4,22.1 4,21V9A2,2 0 0,1 6,7H9V9H6V21H18V9H15V7H18A2,2 0 0,1 20,9V21A2,2 0 0,1 18,23Z" /></svg>
</svg>
<svg id="mdi:backup-restore">
<svg xmlns="http://www.w3.org/2000/svg" id="mdi-backup-restore" viewBox="0 0 24 24"><path d="M12,3A9,9 0 0,0 3,12H0L4,16L8,12H5A7,7 0 0,1 12,5A7,7 0 0,1 19,12A7,7 0 0,1 12,19C10.5,19 9.09,18.5 7.94,17.7L6.5,19.14C8.04,20.3 9.94,21 12,21A9,9 0 0,0 21,12A9,9 0 0,0 12,3M14,12A2,2 0 0,0 12,10A2,2 0 0,0 10,12A2,2 0 0,0 12,14A2,2 0 0,0 14,12Z" /></svg>
</svg>
<svg id="mdi:arrow-collapse-left">
<svg xmlns="http://www.w3.org/2000/svg" id="mdi-arrow-collapse-left" viewBox="0 0 24 24"><path d="M11.92,19.92L4,12L11.92,4.08L13.33,5.5L7.83,11H22V13H7.83L13.34,18.5L11.92,19.92M4,12V2H2V22H4V12Z" /></svg>
</svg>
<svg id="mdi:volume-mute">
<svg xmlns="http://www.w3.org/2000/svg" id="mdi-volume-mute" viewBox="0 0 24 24"><path d="M3,9H7L12,4V20L7,15H3V9M16.59,12L14,9.41L15.41,8L18,10.59L20.59,8L22,9.41L19.41,12L22,14.59L20.59,16L18,13.41L15.41,16L14,14.59L16.59,12Z" /></svg>
</svg>
<svg id="mdi:arrow-collapse-up">
<svg xmlns="http://www.w3.org/2000/svg" id="mdi-arrow-collapse-up" viewBox="0 0 24 24"><path d="M4.08,11.92L12,4L19.92,11.92L18.5,13.33L13,7.83V22H11V7.83L5.5,13.33L4.08,11.92M12,4H22V2H2V4H12Z" /></svg>
</svg>
<svg id="mdi:arrow-collapse-down">
<svg xmlns="http://www.w3.org/2000/svg" id="mdi-arrow-collapse-down" viewBox="0 0 24 24"><path d="M19.92,12.08L12,20L4.08,12.08L5.5,10.67L11,16.17V2H13V16.17L18.5,10.66L19.92,12.08M12,20H2V22H22V20H12Z" /></svg>
</svg>
<svg id="mdi:usb">
<svg xmlns="http://www.w3.org/2000/svg" id="mdi-usb" viewBox="0 0 24 24"><path d="M15,7V11H16V13H13V5H15L12,1L9,5H11V13H8V10.93C8.7,10.56 9.2,9.85 9.2,9C9.2,7.78 8.21,6.8 7,6.8C5.78,6.8 4.8,7.78 4.8,9C4.8,9.85 5.3,10.56 6,10.93V13A2,2 0 0,0 8,15H11V18.05C10.29,18.41 9.8,19.15 9.8,20A2.2,2.2 0 0,0 12,22.2A2.2,2.2 0 0,0 14.2,20C14.2,19.15 13.71,18.41 13,18.05V15H16A2,2 0 0,0 18,13V11H19V7H15Z" /></svg>
</svg>
<svg id="mdi:close">
<svg xmlns="http://www.w3.org/2000/svg" id="mdi-close" viewBox="0 0 24 24"><path d="M19,6.41L17.59,5L12,10.59L6.41,5L5,6.41L10.59,12L5,17.59L6.41,19L12,13.41L17.59,19L19,17.59L13.41,12L19,6.41Z" /></svg>
</svg>
<svg id="mdi:progress-download">
<svg xmlns="http://www.w3.org/2000/svg" id="mdi-progress-download" viewBox="0 0 24 24"><path d="M13,2.03C17.73,2.5 21.5,6.25 21.95,11C22.5,16.5 18.5,21.38 13,21.93V19.93C16.64,19.5 19.5,16.61 19.96,12.97C20.5,8.58 17.39,4.59 13,4.05V2.05L13,2.03M11,2.06V4.06C9.57,4.26 8.22,4.84 7.1,5.74L5.67,4.26C7.19,3 9.05,2.25 11,2.06M4.26,5.67L5.69,7.1C4.8,8.23 4.24,9.58 4.05,11H2.05C2.25,9.04 3,7.19 4.26,5.67M2.06,13H4.06C4.24,14.42 4.81,15.77 5.69,16.9L4.27,18.33C3.03,16.81 2.26,14.96 2.06,13M7.1,18.37C8.23,19.25 9.58,19.82 11,20V22C9.04,21.79 7.18,21 5.67,19.74L7.1,18.37M12,16.5L7.5,12H11V8H13V12H16.5L12,16.5Z" /></svg>
</svg>
<svg id="mdi:bluetooth-connect">
<svg xmlns="http://www.w3.org/2000/svg" id="mdi-bluetooth-connect" viewBox="0 0 24 24"><path d="M19,10L17,12L19,14L21,12M14.88,16.29L13,18.17V14.41M13,5.83L14.88,7.71L13,9.58M17.71,7.71L12,2H11V9.58L6.41,5L5,6.41L10.59,12L5,17.58L6.41,19L11,14.41V22H12L17.71,16.29L13.41,12M7,12L5,10L3,12L5,14L7,12Z" /></svg>
</svg>
</defs>/* end glyphs */
<style>/* inherit to force styles through use tags*/
svg path {
    fill: inherit;
}
/* font and background color specifications */
svg.keymap {
    font-family: SFMono-Regular,Consolas,Liberation Mono,Menlo,monospace;
    font-size: 14px;
    font-kerning: normal;
    text-rendering: optimizeLegibility;
    fill: #24292e;
}

/* default key styling */
rect.key {
    fill: #f6f8fa;
    stroke: #c9cccf;
    stroke-width: 1;
}

/* color accent for held keys */
rect.held, rect.combo.held {
    /* fill: #fdd; */
}

/* color accent for ghost (optional) keys */
rect.ghost, rect.combo.ghost {
    fill: #ddd;
}

text {
    text-anchor: middle;
    dominant-baseline: middle;
    line-height: 1;
}

/* styling for layer labels */
text.label {
    font-weight: bold;
    text-anchor: start;
    paint-order: stroke;
    fill: #aaa;
}

/* styling for combo tap, and key hold/shifted label text */
text.combo, text.hold, text.shifted {
    font-size: 12px;
}

text.hold {
    text-anchor: middle;
    dominant-baseline: auto;
}

text.shifted {
    text-anchor: middle;
    dominant-baseline: hanging;
}

/* styling for hold/shifted label text in combo box */
text.combo.hold, text.combo.shifted {
    font-size: 8px;
}

/* lighter symbol for transparent and none keys */
rect.trans,
rect.none {
    fill: #e6ebf1;
    opacity: 0.75;
    stroke-dasharray: 2, 2;
}
text.trans,
text.none,
use.trans,
use.none {
    fill: #7b7e81;
    opacity: 0.5;
}

/* color accent for combo boxes */
rect.combo {
    fill: #cdf;
}
/* styling for combo dendrons */
path.combo {
    stroke-width: 1;
    stroke: #7b7e81;
    stroke-dasharray: 2, 2;
    fill: none;
    opacity: 0.75;
}

/* Start Tabler Icons Cleanup */
/* cannot use height/width with glyphs */
.icon-tabler > path {
    fill: inherit;
    stroke: inherit;
}
/* hide tabler's default box */
.icon-tabler > path[stroke="none"][fill="none"] {
    visibility: collapse;
}
/* End Tabler Icons Cleanup */
</style>
<g class="layer-BAS">
<text x="30.0" y="28.0" class="label">BAS</text>
<rect rx="6.0" ry="6.0" x="32.0" y="114.0" width="52.0" height="52.0" class="key"/>
<text x="58.0" y="140.0" class="tap">B</text>
<rect rx="6.0" ry="6.0" x="88.0" y="77.6" width="52.0" height="52.0" class="key"/>
<text x="114.0" y="103.6" class="tap">L</text>
<rect rx="6.0" ry="6.0" x="144.0" y="58.0" width="52.0" height="52.0" class="key"/>
<text x="170.0" y="84.0" class="tap">D</text>
<rect rx="6.0" ry="6.0" x="200.0" y="77.6" width="52.0" height="52.0" class="key"/>
<text x="226.0" y="103.6" class="tap">C</text>
<rect rx="6.0" ry="6.0" x="256.0" y="84.6" width="52.0" height="52.0" class="key"/>
<text x="282.0" y="110.6" class="tap">V</text>
<rect rx="6.0" ry="6.0" x="480.0" y="84.6" width="52.0" height="52.0" class="key"/>
<text x="506.0" y="110.6" class="tap">Z</text>
<rect rx="6.0" ry="6.0" x="536.0" y="77.6" width="52.0" height="52.0" class="key"/>
<text x="562.0" y="103.6" class="tap">F</text>
<rect rx="6.0" ry="6.0" x="592.0" y="58.0" width="52.0" height="52.0" class="key"/>
<text x="618.0" y="84.0" class="tap">O</text>
<rect rx="6.0" ry="6.0" x="648.0" y="77.6" width="52.0" height="52.0" class="key"/>
<text x="674.0" y="103.6" class="tap">U</text>
<rect rx="6.0" ry="6.0" x="704.0" y="114.0" width="52.0" height="52.0" class="key"/>
<text x="730.0" y="140.0" class="tap">,</text>
<rect rx="6.0" ry="6.0" x="32.0" y="170.0" width="52.0" height="52.0" class="key"/>
<text x="58.0" y="196.0" class="tap">N</text>
<text x="58.0" y="218.0" class="hold">Shift</text>
<rect rx="6.0" ry="6.0" x="88.0" y="133.60000000000002" width="52.0" height="52.0" class="key"/>
<text x="114.0" y="159.60000000000002" class="tap">R</text>
<text x="114.0" y="181.60000000000002" class="hold">Alt</text>
<rect rx="6.0" ry="6.0" x="144.0" y="114.0" width="52.0" height="52.0" class="key"/>
<text x="170.0" y="140.0" class="tap">T</text>
<text x="170.0" y="162.0" class="hold">Ctrl</text>
<rect rx="6.0" ry="6.0" x="200.0" y="133.60000000000002" width="52.0" height="52.0" class="key"/>
<text x="226.0" y="159.60000000000002" class="tap">S</text>
<text x="226.0" y="181.60000000000002" class="hold">Super</text>
<rect rx="6.0" ry="6.0" x="256.0" y="140.60000000000002" width="52.0" height="52.0" class="key"/>
<text x="282.0" y="166.60000000000002" class="tap">G</text>
<rect rx="6.0" ry="6.0" x="480.0" y="140.60000000000002" width="52.0" height="52.0" class="key"/>
<text x="506.0" y="166.60000000000002" class="tap">Y</text>
<rect rx="6.0" ry="6.0" x="536.0" y="133.60000000000002" width="52.0" height="52.0" class="key"/>
<text x="562.0" y="159.60000000000002" class="tap">H</text>
<text x="562.0" y="181.60000000000002" class="hold">Super</text>
<rect rx="6.0" ry="6.0" x="592.0" y="114.0" width="52.0" height="52.0" class="key"/>
<text x="618.0" y="140.0" class="tap">A</text>
<text x="618.0" y="162.0" class="hold">Ctrl</text>
<rect rx="6.0" ry="6.0" x="648.0" y="133.60000000000002" width="52.0" height="52.0" class="key"/>
<text x="674.0" y="159.60000000000002" class="tap">E</text>
<text x="674.0" y="181.60000000000002" class="hold">Alt</text>
<rect rx="6.0" ry="6.0" x="704.0" y="170.0" width="52.0" height="52.0" class="key"/>
<text x="730.0" y="196.0" class="tap">I</text>
<text x="730.0" y="218.0" class="hold">Shift</text>
<rect rx="6.0" ry="6.0" x="32.0" y="226.0" width="52.0" height="52.0" class="key"/>
<text x="58.0" y="252.0" class="tap">X</text>
<rect rx="6.0" ry="6.0" x="88.0" y="189.6" width="52.0" height="52.0" class="key"/>
<text x="114.0" y="215.6" class="tap">↹</text>
<rect rx="6.0" ry="6.0" x="144.0" y="170.0" width="52.0" height="52.0" class="key"/>
<text x="170.0" y="196.0" class="tap">M</text>
<rect rx="6.0" ry="6.0" x="200.0" y="189.6" width="52.0" height="52.0" class="key"/>
<text x="226.0" y="215.6" class="tap">W</text>
<rect rx="6.0" ry="6.0" x="256.0" y="196.6" width="52.0" height="52.0" class="key"/>
<text x="282.0" y="222.6" class="tap">J</text>
<rect rx="6.0" ry="6.0" x="480.0" y="196.6" width="52.0" height="52.0" class="key"/>
<text x="506.0" y="222.6" class="tap">K</text>
<rect rx="6.0" ry="6.0" x="536.0" y="189.6" width="52.0" height="52.0" class="key"/>
<text x="562.0" y="215.6" class="tap">P</text>
<rect rx="6.0" ry="6.0" x="592.0" y="170.0" width="52.0" height="52.0" class="key"/>
<text x="618.0" y="196.0" class="tap">Q</text>
<rect rx="6.0" ry="6.0" x="648.0" y="189.6" width="52.0" height="52.0" class="key"/>
<use href="#mdi:export-variant" xlink:href="#mdi:export-variant" x="666.0" y="207.6" height="16" width="16.0" class="tap glyph mdi:export-variant"/>
<rect rx="6.0" ry="6.0" x="704.0" y="226.0" width="52.0" height="52.0" class="key"/>
<text x="730.0" y="252.0" class="tap">.</text>
<g transform="rotate(15.0, 249.68171341599242, 279.73030125216246)">
<rect rx="6.0" ry="6.0" x="223.68171341599242" y="253.73030125216246" width="52.0" height="52.0" class="key"/>
<use href="#mdi:backspace-outline" xlink:href="#mdi:backspace-outline" x="241.68171341599242" y="271.73030125216246" height="16" width="16.0" class="tap glyph mdi:backspace-outline"/>
<text x="249.68171341599242" y="301.73030125216246" class="hold">SYM</text>
<use href="#mdi:backspace-reverse-outline" xlink:href="#mdi:backspace-reverse-outline" x="244.68171341599242" y="257.73030125216246" height="10" width="10.0" class="shifted glyph mdi:backspace-reverse-outline"/>
</g>
<g transform="rotate(30.0, 305.414819582835, 303.13217809220816)">
<rect rx="6.0" ry="6.0" x="279.414819582835" y="277.13217809220816" width="52.0" height="52.0" class="key"/>
<use href="#mdi:cached" xlink:href="#mdi:cached" x="297.414819582835" y="295.13217809220816" height="16" width="16.0" class="tap glyph mdi:cached"/>
<text x="305.414819582835" y="325.13217809220816" class="hold">Shift</text>
<text x="305.414819582835" y="281.13217809220816" class="shifted">Compose</text>
</g>
<g transform="rotate(-30.0, 482.58518041716496, 303.1321780922083)">
<rect rx="6.0" ry="6.0" x="456.58518041716496" y="277.1321780922083" width="52.0" height="52.0" class="key"/>
<use href="#mdi:keyboard-space" xlink:href="#mdi:keyboard-space" x="474.58518041716496" y="295.1321780922083" height="16" width="16.0" class="tap glyph mdi:keyboard-space"/>
<text x="482.58518041716496" y="325.1321780922083" class="hold">NAV</text>
</g>
<g transform="rotate(-15.0, 538.3182865840076, 279.73030125216246)">
<rect rx="6.0" ry="6.0" x="512.3182865840076" y="253.73030125216246" width="52.0" height="52.0" class="key"/>
<text x="538.3182865840076" y="279.73030125216246" class="tap">⮠</text>
<text x="538.3182865840076" y="301.73030125216246" class="hold">NUM</text>
</g>
<path d="M311.0,166.6 v-50.0 a6.0,6.0 0 0 0 -6.0,-6.0 h-4.333333333333332" class="combo"/>
<path d="M311.0,166.6 v50.0 a6.0,6.0 0 0 1 -6.0,6.0 h-4.333333333333332" class="combo"/>
<rect rx="6.0" ry="6.0" x="297.0" y="153.6" width="28.0" height="26.0" class="combo"/>
<text x="311.0" y="166.6" class="combo tap">HYP</text>
<path d="M477.0,166.6 v-50.0 a6.0,6.0 0 0 1 6.0,-6.0 h4.333333333333332" class="combo"/>
<path d="M477.0,166.6 v50.0 a6.0,6.0 0 0 0 6.0,6.0 h4.333333333333332" class="combo"/>
<rect rx="6.0" ry="6.0" x="463.0" y="153.6" width="28.0" height="26.0" class="combo"/>
<text x="477.0" y="166.6" class="combo tap">HYP</text>
</g>
<g class="layer-NAV">
<text x="30.0" y="369.38088939817254" class="label">NAV</text>
<rect rx="6.0" ry="6.0" x="32.0" y="455.38088939817254" width="52.0" height="52.0" class="key"/>
<rect rx="6.0" ry="6.0" x="88.0" y="418.98088939817256" width="52.0" height="52.0" class="key"/>
<rect rx="6.0" ry="6.0" x="144.0" y="399.38088939817254" width="52.0" height="52.0" class="key"/>
<use href="#mdi:arrow-collapse-right" xlink:href="#mdi:arrow-collapse-right" x="162.0" y="417.38088939817254" height="16" width="16.0" class="tap glyph mdi:arrow-collapse-right"/>
<rect rx="6.0" ry="6.0" x="200.0" y="418.98088939817256" width="52.0" height="52.0" class="key"/>
<rect rx="6.0" ry="6.0" x="256.0" y="425.98088939817256" width="52.0" height="52.0" class="key"/>
<rect rx="6.0" ry="6.0" x="480.0" y="425.98088939817256" width="52.0" height="52.0" class="key"/>
<rect rx="6.0" ry="6.0" x="536.0" y="418.98088939817256" width="52.0" height="52.0" class="key"/>
<rect rx="6.0" ry="6.0" x="592.0" y="399.38088939817254" width="52.0" height="52.0" class="key"/>
<rect rx="6.0" ry="6.0" x="648.0" y="418.98088939817256" width="52.0" height="52.0" class="key"/>
<rect rx="6.0" ry="6.0" x="704.0" y="455.38088939817254" width="52.0" height="52.0" class="key"/>
<rect rx="6.0" ry="6.0" x="32.0" y="511.3808893981725" width="52.0" height="52.0" class="key"/>
<use href="#mdi:arrow-collapse-left" xlink:href="#mdi:arrow-collapse-left" x="50.0" y="529.3808893981725" height="16" width="16.0" class="tap glyph mdi:arrow-collapse-left"/>
<rect rx="6.0" ry="6.0" x="88.0" y="474.98088939817256" width="52.0" height="52.0" class="key"/>
<rect rx="6.0" ry="6.0" x="144.0" y="455.38088939817254" width="52.0" height="52.0" class="key"/>
<rect rx="6.0" ry="6.0" x="200.0" y="474.98088939817256" width="52.0" height="52.0" class="key"/>
<rect rx="6.0" ry="6.0" x="256.0" y="481.98088939817256" width="52.0" height="52.0" class="key"/>
<use href="#mdi:arrow-collapse-down" xlink:href="#mdi:arrow-collapse-down" x="274.0" y="499.98088939817256" height="16" width="16.0" class="tap glyph mdi:arrow-collapse-down"/>
<rect rx="6.0" ry="6.0" x="480.0" y="481.98088939817256" width="52.0" height="52.0" class="key"/>
<rect rx="6.0" ry="6.0" x="536.0" y="474.98088939817256" width="52.0" height="52.0" class="key"/>
<text x="562.0" y="500.98088939817256" class="tap">🡄</text>
<rect rx="6.0" ry="6.0" x="592.0" y="455.38088939817254" width="52.0" height="52.0" class="key"/>
<text x="618.0" y="481.38088939817254" class="tap">🡇</text>
<rect rx="6.0" ry="6.0" x="648.0" y="474.98088939817256" width="52.0" height="52.0" class="key"/>
<text x="674.0" y="500.98088939817256" class="tap">🡅</text>
<rect rx="6.0" ry="6.0" x="704.0" y="511.3808893981725" width="52.0" height="52.0" class="key"/>
<text x="730.0" y="537.3808893981725" class="tap">🡆</text>
<rect rx="6.0" ry="6.0" x="32.0" y="567.3808893981725" width="52.0" height="52.0" class="key"/>
<rect rx="6.0" ry="6.0" x="88.0" y="530.9808893981725" width="52.0" height="52.0" class="key"/>
<use href="#mdi:volume-minus" xlink:href="#mdi:volume-minus" x="106.0" y="548.9808893981725" height="16" width="16.0" class="tap glyph mdi:volume-minus"/>
<rect rx="6.0" ry="6.0" x="144.0" y="511.3808893981725" width="52.0" height="52.0" class="key"/>
<use href="#mdi:volume-mute" xlink:href="#mdi:volume-mute" x="162.0" y="529.3808893981725" height="16" width="16.0" class="tap glyph mdi:volume-mute"/>
<rect rx="6.0" ry="6.0" x="200.0" y="530.9808893981725" width="52.0" height="52.0" class="key"/>
<use href="#mdi:volume-plus" xlink:href="#mdi:volume-plus" x="218.0" y="548.9808893981725" height="16" width="16.0" class="tap glyph mdi:volume-plus"/>
<rect rx="6.0" ry="6.0" x="256.0" y="537.9808893981725" width="52.0" height="52.0" class="key"/>
<rect rx="6.0" ry="6.0" x="480.0" y="537.9808893981725" width="52.0" height="52.0" class="key"/>
<use href="#mdi:arrow-collapse-up" xlink:href="#mdi:arrow-collapse-up" x="498.0" y="555.9808893981725" height="16" width="16.0" class="tap glyph mdi:arrow-collapse-up"/>
<rect rx="6.0" ry="6.0" x="536.0" y="530.9808893981725" width="52.0" height="52.0" class="key"/>
<rect rx="6.0" ry="6.0" x="592.0" y="511.3808893981725" width="52.0" height="52.0" class="key"/>
<rect rx="6.0" ry="6.0" x="648.0" y="530.9808893981725" width="52.0" height="52.0" class="key"/>
<rect rx="6.0" ry="6.0" x="704.0" y="567.3808893981725" width="52.0" height="52.0" class="key"/>
<g transform="rotate(15.0, 249.68171341599242, 621.1111906503351)">
<rect rx="6.0" ry="6.0" x="223.68171341599242" y="595.1111906503351" width="52.0" height="52.0" class="key"/>
</g>
<g transform="rotate(30.0, 305.414819582835, 644.5130674903808)">
<rect rx="6.0" ry="6.0" x="279.414819582835" y="618.5130674903808" width="52.0" height="52.0" class="key"/>
<text x="305.414819582835" y="644.5130674903808" class="tap">NAV</text>
</g>
<g transform="rotate(-30.0, 482.58518041716496, 644.5130674903808)">
<rect rx="6.0" ry="6.0" x="456.58518041716496" y="618.5130674903808" width="52.0" height="52.0" class="held key"/>
</g>
<g transform="rotate(-15.0, 538.3182865840076, 621.111190650335)">
<rect rx="6.0" ry="6.0" x="512.3182865840076" y="595.111190650335" width="52.0" height="52.0" class="key"/>
</g>
</g>
<g class="layer-NUM">
<text x="30.0" y="710.7617787963451" class="label">NUM</text>
<rect rx="6.0" ry="6.0" x="32.0" y="796.7617787963451" width="52.0" height="52.0" class="key"/>
<text x="58.0" y="822.7617787963451" class="tap">F1</text>
<rect rx="6.0" ry="6.0" x="88.0" y="760.3617787963451" width="52.0" height="52.0" class="key"/>
<text x="114.0" y="786.3617787963451" class="tap">F2</text>
<rect rx="6.0" ry="6.0" x="144.0" y="740.7617787963451" width="52.0" height="52.0" class="key"/>
<text x="170.0" y="766.7617787963451" class="tap">F3</text>
<rect rx="6.0" ry="6.0" x="200.0" y="760.3617787963451" width="52.0" height="52.0" class="key"/>
<text x="226.0" y="786.3617787963451" class="tap">F4</text>
<rect rx="6.0" ry="6.0" x="256.0" y="767.3617787963451" width="52.0" height="52.0" class="key"/>
<text x="282.0" y="793.3617787963451" class="tap">F5</text>
<rect rx="6.0" ry="6.0" x="480.0" y="767.3617787963451" width="52.0" height="52.0" class="key"/>
<text x="506.0" y="793.3617787963451" class="tap">F6</text>
<rect rx="6.0" ry="6.0" x="536.0" y="760.3617787963451" width="52.0" height="52.0" class="key"/>
<text x="562.0" y="786.3617787963451" class="tap">F7</text>
<rect rx="6.0" ry="6.0" x="592.0" y="740.7617787963451" width="52.0" height="52.0" class="key"/>
<text x="618.0" y="766.7617787963451" class="tap">F8</text>
<rect rx="6.0" ry="6.0" x="648.0" y="760.3617787963451" width="52.0" height="52.0" class="key"/>
<text x="674.0" y="786.3617787963451" class="tap">F9</text>
<rect rx="6.0" ry="6.0" x="704.0" y="796.7617787963451" width="52.0" height="52.0" class="key"/>
<text x="730.0" y="822.7617787963451" class="tap">F10</text>
<rect rx="6.0" ry="6.0" x="32.0" y="852.7617787963451" width="52.0" height="52.0" class="key"/>
<text x="58.0" y="878.7617787963451" class="tap">1</text>
<rect rx="6.0" ry="6.0" x="88.0" y="816.3617787963451" width="52.0" height="52.0" class="key"/>
<text x="114.0" y="842.3617787963451" class="tap">2</text>
<rect rx="6.0" ry="6.0" x="144.0" y="796.7617787963451" width="52.0" height="52.0" class="key"/>
<text x="170.0" y="822.7617787963451" class="tap">3</text>
<rect rx="6.0" ry="6.0" x="200.0" y="816.3617787963451" width="52.0" height="52.0" class="key"/>
<text x="226.0" y="842.3617787963451" class="tap">4</text>
<rect rx="6.0" ry="6.0" x="256.0" y="823.3617787963451" width="52.0" height="52.0" class="key"/>
<text x="282.0" y="849.3617787963451" class="tap">5</text>
<rect rx="6.0" ry="6.0" x="480.0" y="823.3617787963451" width="52.0" height="52.0" class="key"/>
<text x="506.0" y="849.3617787963451" class="tap">6</text>
<rect rx="6.0" ry="6.0" x="536.0" y="816.3617787963451" width="52.0" height="52.0" class="key"/>
<text x="562.0" y="842.3617787963451" class="tap">7</text>
<rect rx="6.0" ry="6.0" x="592.0" y="796.7617787963451" width="52.0" height="52.0" class="key"/>
<text x="618.0" y="822.7617787963451" class="tap">8</text>
<rect rx="6.0" ry="6.0" x="648.0" y="816.3617787963451" width="52.0" height="52.0" class="key"/>
<text x="674.0" y="842.3617787963451" class="tap">9</text>
<rect rx="6.0" ry="6.0" x="704.0" y="852.7617787963451" width="52.0" height="52.0" class="key"/>
<text x="730.0" y="878.7617787963451" class="tap">0</text>
<rect rx="6.0" ry="6.0" x="32.0" y="908.7617787963451" width="52.0" height="52.0" class="key"/>
<text x="58.0" y="934.7617787963451" class="tap">F11</text>
<rect rx="6.0" ry="6.0" x="88.0" y="872.3617787963451" width="52.0" height="52.0" class="key"/>
<text x="114.0" y="898.3617787963451" class="tap">F12</text>
<rect rx="6.0" ry="6.0" x="144.0" y="852.7617787963451" width="52.0" height="52.0" class="key"/>
<text x="170.0" y="878.7617787963451" class="tap">F13</text>
<rect rx="6.0" ry="6.0" x="200.0" y="872.3617787963451" width="52.0" height="52.0" class="key"/>
<text x="226.0" y="898.3617787963451" class="tap">F14</text>
<rect rx="6.0" ry="6.0" x="256.0" y="879.3617787963451" width="52.0" height="52.0" class="key"/>
<text x="282.0" y="905.3617787963451" class="tap">F15</text>
<rect rx="6.0" ry="6.0" x="480.0" y="879.3617787963451" width="52.0" height="52.0" class="key"/>
<text x="506.0" y="905.3617787963451" class="tap">F16</text>
<rect rx="6.0" ry="6.0" x="536.0" y="872.3617787963451" width="52.0" height="52.0" class="key"/>
<text x="562.0" y="898.3617787963451" class="tap">F17</text>
<rect rx="6.0" ry="6.0" x="592.0" y="852.7617787963451" width="52.0" height="52.0" class="key"/>
<text x="618.0" y="878.7617787963451" class="tap">F18</text>
<rect rx="6.0" ry="6.0" x="648.0" y="872.3617787963451" width="52.0" height="52.0" class="key"/>
<text x="674.0" y="898.3617787963451" class="tap">F19</text>
<rect rx="6.0" ry="6.0" x="704.0" y="908.7617787963451" width="52.0" height="52.0" class="key"/>
<text x="730.0" y="934.7617787963451" class="tap">F20</text>
<g transform="rotate(15.0, 249.68171341599242, 962.4920800485075)">
<rect rx="6.0" ry="6.0" x="223.68171341599242" y="936.4920800485075" width="52.0" height="52.0" class="key"/>
</g>
<g transform="rotate(30.0, 305.414819582835, 985.8939568885532)">
<rect rx="6.0" ry="6.0" x="279.414819582835" y="959.8939568885532" width="52.0" height="52.0" class="key"/>
</g>
<g transform="rotate(-30.0, 482.58518041716496, 985.8939568885534)">
<rect rx="6.0" ry="6.0" x="456.58518041716496" y="959.8939568885534" width="52.0" height="52.0" class="key"/>
<text x="482.58518041716496" y="985.8939568885534" class="tap">NUM</text>
</g>
<g transform="rotate(-15.0, 538.3182865840076, 962.4920800485075)">
<rect rx="6.0" ry="6.0" x="512.3182865840076" y="936.4920800485075" width="52.0" height="52.0" class="held key"/>
</g>
</g>
<g class="layer-SYM">
<text x="30.0" y="1052.1426681945177" class="label">SYM</text>
<rect rx="6.0" ry="6.0" x="32.0" y="1138.1426681945177" width="52.0" height="52.0" class="key"/>
<text x="58.0" y="1164.1426681945177" class="tap">|</text>
<rect rx="6.0" ry="6.0" x="88.0" y="1101.7426681945176" width="52.0" height="52.0" class="key"/>
<text x="114.0" y="1127.7426681945176" class="tap">-</text>
<rect rx="6.0" ry="6.0" x="144.0" y="1082.1426681945177" width="52.0" height="52.0" class="key"/>
<text x="170.0" y="1108.1426681945177" class="tap">=</text>
<rect rx="6.0" ry="6.0" x="200.0" y="1101.7426681945176" width="52.0" height="52.0" class="key"/>
<text x="226.0" y="1127.7426681945176" class="tap">+</text>
<rect rx="6.0" ry="6.0" x="256.0" y="1108.7426681945176" width="52.0" height="52.0" class="key"/>
<text x="282.0" y="1134.7426681945176" class="tap">\</text>
<rect rx="6.0" ry="6.0" x="480.0" y="1108.7426681945176" width="52.0" height="52.0" class="key"/>
<text x="506.0" y="1134.7426681945176" class="tap">{</text>
<rect rx="6.0" ry="6.0" x="536.0" y="1101.7426681945176" width="52.0" height="52.0" class="key"/>
<text x="562.0" y="1127.7426681945176" class="tap">[</text>
<rect rx="6.0" ry="6.0" x="592.0" y="1082.1426681945177" width="52.0" height="52.0" class="key"/>
<text x="618.0" y="1108.1426681945177" class="tap">:</text>
<rect rx="6.0" ry="6.0" x="648.0" y="1101.7426681945176" width="52.0" height="52.0" class="key"/>
<text x="674.0" y="1127.7426681945176" class="tap">]</text>
<rect rx="6.0" ry="6.0" x="704.0" y="1138.1426681945177" width="52.0" height="52.0" class="key"/>
<text x="730.0" y="1164.1426681945177" class="tap">}</text>
<rect rx="6.0" ry="6.0" x="32.0" y="1194.1426681945177" width="52.0" height="52.0" class="key"/>
<text x="58.0" y="1220.1426681945177" class="tap">!</text>
<rect rx="6.0" ry="6.0" x="88.0" y="1157.7426681945176" width="52.0" height="52.0" class="key"/>
<text x="114.0" y="1183.7426681945176" class="tap">@</text>
<rect rx="6.0" ry="6.0" x="144.0" y="1138.1426681945177" width="52.0" height="52.0" class="key"/>
<text x="170.0" y="1164.1426681945177" class="tap">*</text>
<rect rx="6.0" ry="6.0" x="200.0" y="1157.7426681945176" width="52.0" height="52.0" class="key"/>
<text x="226.0" y="1183.7426681945176" class="tap">$</text>
<rect rx="6.0" ry="6.0" x="256.0" y="1164.7426681945176" width="52.0" height="52.0" class="key"/>
<text x="282.0" y="1190.7426681945176" class="tap">%</text>
<rect rx="6.0" ry="6.0" x="480.0" y="1164.7426681945176" width="52.0" height="52.0" class="key"/>
<text x="506.0" y="1190.7426681945176" class="tap">&amp;</text>
<rect rx="6.0" ry="6.0" x="536.0" y="1157.7426681945176" width="52.0" height="52.0" class="key"/>
<text x="562.0" y="1183.7426681945176" class="tap">^</text>
<rect rx="6.0" ry="6.0" x="592.0" y="1138.1426681945177" width="52.0" height="52.0" class="key"/>
<text x="618.0" y="1164.1426681945177" class="tap">#</text>
<rect rx="6.0" ry="6.0" x="648.0" y="1157.7426681945176" width="52.0" height="52.0" class="key"/>
<text x="674.0" y="1183.7426681945176" class="tap">~</text>
<rect rx="6.0" ry="6.0" x="704.0" y="1194.1426681945177" width="52.0" height="52.0" class="key"/>
<text x="730.0" y="1220.1426681945177" class="tap">_</text>
<rect rx="6.0" ry="6.0" x="32.0" y="1250.1426681945177" width="52.0" height="52.0" class="key"/>
<text x="58.0" y="1276.1426681945177" class="tap">?</text>
<rect rx="6.0" ry="6.0" x="88.0" y="1213.7426681945176" width="52.0" height="52.0" class="key"/>
<text x="114.0" y="1239.7426681945176" class="tap">&#x27;</text>
<rect rx="6.0" ry="6.0" x="144.0" y="1194.1426681945177" width="52.0" height="52.0" class="key"/>
<text x="170.0" y="1220.1426681945177" class="tap">`</text>
<rect rx="6.0" ry="6.0" x="200.0" y="1213.7426681945176" width="52.0" height="52.0" class="key"/>
<text x="226.0" y="1239.7426681945176" class="tap">&quot;</text>
<rect rx="6.0" ry="6.0" x="256.0" y="1220.7426681945176" width="52.0" height="52.0" class="key"/>
<text x="282.0" y="1246.7426681945176" class="tap">/</text>
<rect rx="6.0" ry="6.0" x="480.0" y="1220.7426681945176" width="52.0" height="52.0" class="key"/>
<text x="506.0" y="1246.7426681945176" class="tap">&lt;</text>
<rect rx="6.0" ry="6.0" x="536.0" y="1213.7426681945176" width="52.0" height="52.0" class="key"/>
<text x="562.0" y="1239.7426681945176" class="tap">(</text>
<rect rx="6.0" ry="6.0" x="592.0" y="1194.1426681945177" width="52.0" height="52.0" class="key"/>
<text x="618.0" y="1220.1426681945177" class="tap">;</text>
<rect rx="6.0" ry="6.0" x="648.0" y="1213.7426681945176" width="52.0" height="52.0" class="key"/>
<text x="674.0" y="1239.7426681945176" class="tap">)</text>
<rect rx="6.0" ry="6.0" x="704.0" y="1250.1426681945177" width="52.0" height="52.0" class="key"/>
<text x="730.0" y="1276.1426681945177" class="tap">&gt;</text>
<g transform="rotate(15.0, 249.68171341599242, 1303.8729694466801)">
<rect rx="6.0" ry="6.0" x="223.68171341599242" y="1277.8729694466801" width="52.0" height="52.0" class="held key"/>
<text x="249.68171341599242" y="1303.8729694466801" class="held tap">SYM</text>
</g>
<g transform="rotate(30.0, 305.414819582835, 1327.274846286726)">
<rect rx="6.0" ry="6.0" x="279.414819582835" y="1301.274846286726" width="52.0" height="52.0" class="key"/>
</g>
<g transform="rotate(-30.0, 482.58518041716496, 1327.274846286726)">
<rect rx="6.0" ry="6.0" x="456.58518041716496" y="1301.274846286726" width="52.0" height="52.0" class="key"/>
</g>
<g transform="rotate(-15.0, 538.3182865840076, 1303.8729694466801)">
<rect rx="6.0" ry="6.0" x="512.3182865840076" y="1277.8729694466801" width="52.0" height="52.0" class="key"/>
</g>
</g>
<g class="layer-HYP">
<text x="30.0" y="1393.5235575926902" class="label">HYP</text>
<rect rx="6.0" ry="6.0" x="32.0" y="1479.5235575926902" width="52.0" height="52.0" class="key"/>
<rect rx="6.0" ry="6.0" x="88.0" y="1443.12355759269" width="52.0" height="52.0" class="key"/>
<use href="#mdi:skip-previous" xlink:href="#mdi:skip-previous" x="106.0" y="1461.12355759269" height="16" width="16.0" class="tap glyph mdi:skip-previous"/>
<use href="#mdi:bluetooth-connect" xlink:href="#mdi:bluetooth-connect" x="109.0" y="1447.12355759269" height="10" width="10.0" class="shifted glyph mdi:bluetooth-connect"/>
<rect rx="6.0" ry="6.0" x="144.0" y="1423.5235575926902" width="52.0" height="52.0" class="key"/>
<use href="#mdi:close" xlink:href="#mdi:close" x="162.0" y="1441.5235575926902" height="16" width="16.0" class="tap glyph mdi:close"/>
<use href="#mdi:bluetooth-connect" xlink:href="#mdi:bluetooth-connect" x="165.0" y="1427.5235575926902" height="10" width="10.0" class="shifted glyph mdi:bluetooth-connect"/>
<rect rx="6.0" ry="6.0" x="200.0" y="1443.12355759269" width="52.0" height="52.0" class="key"/>
<use href="#mdi:skip-next" xlink:href="#mdi:skip-next" x="218.0" y="1461.12355759269" height="16" width="16.0" class="tap glyph mdi:skip-next"/>
<use href="#mdi:bluetooth-connect" xlink:href="#mdi:bluetooth-connect" x="221.0" y="1447.12355759269" height="10" width="10.0" class="shifted glyph mdi:bluetooth-connect"/>
<rect rx="6.0" ry="6.0" x="256.0" y="1450.12355759269" width="52.0" height="52.0" class="key"/>
<rect rx="6.0" ry="6.0" x="480.0" y="1450.12355759269" width="52.0" height="52.0" class="key"/>
<rect rx="6.0" ry="6.0" x="536.0" y="1443.12355759269" width="52.0" height="52.0" class="key"/>
<rect rx="6.0" ry="6.0" x="592.0" y="1423.5235575926902" width="52.0" height="52.0" class="key"/>
<rect rx="6.0" ry="6.0" x="648.0" y="1443.12355759269" width="52.0" height="52.0" class="key"/>
<rect rx="6.0" ry="6.0" x="704.0" y="1479.5235575926902" width="52.0" height="52.0" class="key"/>
<rect rx="6.0" ry="6.0" x="32.0" y="1535.5235575926902" width="52.0" height="52.0" class="key"/>
<text x="58.0" y="1561.5235575926902" class="tap">1</text>
<use href="#mdi:bluetooth-connect" xlink:href="#mdi:bluetooth-connect" x="53.0" y="1539.5235575926902" height="10" width="10.0" class="shifted glyph mdi:bluetooth-connect"/>
<rect rx="6.0" ry="6.0" x="88.0" y="1499.12355759269" width="52.0" height="52.0" class="key"/>
<text x="114.0" y="1525.12355759269" class="tap">2</text>
<use href="#mdi:bluetooth-connect" xlink:href="#mdi:bluetooth-connect" x="109.0" y="1503.12355759269" height="10" width="10.0" class="shifted glyph mdi:bluetooth-connect"/>
<rect rx="6.0" ry="6.0" x="144.0" y="1479.5235575926902" width="52.0" height="52.0" class="key"/>
<text x="170.0" y="1505.5235575926902" class="tap">3</text>
<use href="#mdi:bluetooth-connect" xlink:href="#mdi:bluetooth-connect" x="165.0" y="1483.5235575926902" height="10" width="10.0" class="shifted glyph mdi:bluetooth-connect"/>
<rect rx="6.0" ry="6.0" x="200.0" y="1499.12355759269" width="52.0" height="52.0" class="key"/>
<text x="226.0" y="1525.12355759269" class="tap">4</text>
<use href="#mdi:bluetooth-connect" xlink:href="#mdi:bluetooth-connect" x="221.0" y="1503.12355759269" height="10" width="10.0" class="shifted glyph mdi:bluetooth-connect"/>
<rect rx="6.0" ry="6.0" x="256.0" y="1506.12355759269" width="52.0" height="52.0" class="key"/>
<text x="282.0" y="1532.12355759269" class="tap">5</text>
<use href="#mdi:bluetooth-connect" xlink:href="#mdi:bluetooth-connect" x="277.0" y="1510.12355759269" height="10" width="10.0" class="shifted glyph mdi:bluetooth-connect"/>
<rect rx="6.0" ry="6.0" x="480.0" y="1506.12355759269" width="52.0" height="52.0" class="key"/>
<rect rx="6.0" ry="6.0" x="536.0" y="1499.12355759269" width="52.0" height="52.0" class="key"/>
<use href="#mdi:bluetooth-settings" xlink:href="#mdi:bluetooth-settings" x="554.0" y="1517.12355759269" height="16" width="16.0" class="tap glyph mdi:bluetooth-settings"/>
<rect rx="6.0" ry="6.0" x="592.0" y="1479.5235575926902" width="52.0" height="52.0" class="key"/>
<use href="#mdi:usb" xlink:href="#mdi:usb" x="610.0" y="1497.5235575926902" height="16" width="16.0" class="tap glyph mdi:usb"/>
<rect rx="6.0" ry="6.0" x="648.0" y="1499.12355759269" width="52.0" height="52.0" class="key"/>
<rect rx="6.0" ry="6.0" x="704.0" y="1535.5235575926902" width="52.0" height="52.0" class="key"/>
<rect rx="6.0" ry="6.0" x="32.0" y="1591.5235575926902" width="52.0" height="52.0" class="key"/>
<rect rx="6.0" ry="6.0" x="88.0" y="1555.12355759269" width="52.0" height="52.0" class="key"/>
<use href="#mdi:progress-download" xlink:href="#mdi:progress-download" x="106.0" y="1573.12355759269" height="16" width="16.0" class="tap glyph mdi:progress-download"/>
<rect rx="6.0" ry="6.0" x="144.0" y="1535.5235575926902" width="52.0" height="52.0" class="key"/>
<rect rx="6.0" ry="6.0" x="200.0" y="1555.12355759269" width="52.0" height="52.0" class="key"/>
<use href="#mdi:backup-restore" xlink:href="#mdi:backup-restore" x="218.0" y="1573.12355759269" height="16" width="16.0" class="tap glyph mdi:backup-restore"/>
<rect rx="6.0" ry="6.0" x="256.0" y="1562.12355759269" width="52.0" height="52.0" class="key"/>
<rect rx="6.0" ry="6.0" x="480.0" y="1562.12355759269" width="52.0" height="52.0" class="key"/>
<rect rx="6.0" ry="6.0" x="536.0" y="1555.12355759269" width="52.0" height="52.0" class="key"/>
<use href="#mdi:backup-restore" xlink:href="#mdi:backup-restore" x="554.0" y="1573.12355759269" height="16" width="16.0" class="tap glyph mdi:backup-restore"/>
<rect rx="6.0" ry="6.0" x="592.0" y="1535.5235575926902" width="52.0" height="52.0" class="key"/>
<rect rx="6.0" ry="6.0" x="648.0" y="1555.12355759269" width="52.0" height="52.0" class="key"/>
<use href="#mdi:progress-download" xlink:href="#mdi:progress-download" x="666.0" y="1573.12355759269" height="16" width="16.0" class="tap glyph mdi:progress-download"/>
<rect rx="6.0" ry="6.0" x="704.0" y="1591.5235575926902" width="52.0" height="52.0" class="key"/>
<g transform="rotate(15.0, 249.68171341599242, 1645.2538588448526)">
<rect rx="6.0" ry="6.0" x="223.68171341599242" y="1619.2538588448526" width="52.0" height="52.0" class="key"/>
</g>
<g transform="rotate(30.0, 305.414819582835, 1668.6557356848984)">
<rect rx="6.0" ry="6.0" x="279.414819582835" y="1642.6557356848984" width="52.0" height="52.0" class="key"/>
</g>
<g transform="rotate(-30.0, 482.58518041716496, 1668.6557356848984)">
<rect rx="6.0" ry="6.0" x="456.58518041716496" y="1642.6557356848984" width="52.0" height="52.0" class="key"/>
</g>
<g transform="rotate(-15.0, 538.3182865840076, 1645.2538588448526)">
<rect rx="6.0" ry="6.0" x="512.3182865840076" y="1619.2538588448526" width="52.0" height="52.0" class="key"/>
</g>
<path d="M311.0,1532.12355759269 v-50.0 a6.0,6.0 0 0 0 -6.0,-6.0 h-4.333333333333332" class="combo"/>
<path d="M311.0,1532.12355759269 v50.0 a6.0,6.0 0 0 1 -6.0,6.0 h-4.333333333333332" class="combo"/>
<rect rx="6.0" ry="6.0" x="297.0" y="1519.12355759269" width="28.0" height="26.0" class="combo"/>
<text x="311.0" y="1532.12355759269" class="combo tap">HYP</text>
<path d="M477.0,1532.12355759269 v-50.0 a6.0,6.0 0 0 1 6.0,-6.0 h4.333333333333332" class="combo"/>
<path d="M477.0,1532.12355759269 v50.0 a6.0,6.0 0 0 0 6.0,6.0 h4.333333333333332" class="combo"/>
<rect rx="6.0" ry="6.0" x="463.0" y="1519.12355759269" width="28.0" height="26.0" class="combo"/>
<text x="477.0" y="1532.12355759269" class="combo tap">HYP</text>
</g>
</svg>
